<svg width="238" height="238" viewBox="0 0 238 238" fill="none" xmlns="http://www.w3.org/2000/svg">
<path d="M134.302 215.489C141.768 219.239 167.705 217.265 173.6 219.239C169.67 215.292 163.382 200.686 155.916 197.133C148.449 193.58 126.442 195.356 120.547 193.58C124.477 197.528 126.835 211.739 134.302 215.489Z" fill="#B69C5B" stroke="#967A34"/>
<path d="M117.502 187.175C124.968 190.926 150.905 188.952 156.8 190.926C152.87 186.978 146.582 172.372 139.116 168.819C131.649 165.266 109.642 167.043 103.747 165.266C107.677 169.214 110.035 183.425 117.502 187.175Z" fill="#B69C5B" stroke="#967A34"/>
<path d="M101.586 158.862C109.053 162.612 134.989 160.638 140.884 162.612C136.954 158.664 130.667 144.058 123.2 140.506C115.733 136.953 93.7263 138.729 87.8316 136.953C91.7614 140.9 94.1193 155.112 101.586 158.862Z" fill="#B69C5B" stroke="#967A34"/>
<path d="M86.5544 130.548C94.021 134.298 119.958 132.325 125.853 134.298C121.923 130.351 115.635 115.745 108.168 112.192C100.702 108.639 78.6947 110.416 72.8 108.639C76.7298 112.587 79.0877 126.798 86.5544 130.548Z" fill="#B69C5B" stroke="#967A34"/>
<path d="M193.073 183.041C192.298 191.33 176.935 212.207 175.489 218.23C174.23 212.826 165.215 199.805 166.158 191.62C167.1 183.435 180.222 165.775 181.834 159.856C183.093 165.26 193.849 174.752 193.073 183.041Z" fill="#D0B05B" stroke="#967A34"/>
<path d="M176.332 154.846C175.557 163.135 160.193 184.012 158.747 190.035C157.489 184.63 148.474 171.609 149.417 163.424C150.359 155.24 163.48 137.579 165.093 131.66C166.352 137.065 177.108 146.557 176.332 154.846Z" fill="#D0B05B" stroke="#967A34"/>
<path d="M160.472 126.65C159.697 134.939 144.333 155.816 142.887 161.839C141.629 156.435 132.614 143.413 133.557 135.229C134.499 127.044 147.62 109.384 149.233 103.465C150.492 108.869 161.248 118.361 160.472 126.65Z" fill="#D0B05B" stroke="#967A34"/>
<path d="M146.375 98.4544C145.599 106.743 130.236 127.62 128.79 133.643C127.531 128.239 118.516 115.218 119.459 107.033C120.401 98.8484 133.523 81.1882 135.135 75.2693C136.394 80.6735 147.15 90.1655 146.375 98.4544Z" fill="#D0B05B" stroke="#967A34"/>
<circle cx="119" cy="119" r="112.5" stroke="#D0B05B" stroke-width="13"/>
</svg>
